<svg xmlns="http://www.w3.org/2000/svg" width="512" height="512" viewBox="0 0 256 256">
  
    <defs>
      <linearGradient id="a2_orange" x1="0" y1="0" x2="1" y2="1">
        <stop offset="0%" stop-color="#FF9A1F"/>
        <stop offset="45%" stop-color="#FF6A00"/>
        <stop offset="100%" stop-color="#FF3D00"/>
      </linearGradient>
      <linearGradient id="a2_blue" x1="0" y1="0" x2="1" y2="1">
        <stop offset="0%" stop-color="#A9D8FF"/>
        <stop offset="100%" stop-color="#4A90E2"/>
      </linearGradient>
      <linearGradient id="a2_purple" x1="0" y1="0" x2="1" y2="1">
        <stop offset="0%" stop-color="#B7A7FF"/>
        <stop offset="100%" stop-color="#7C5CFF"/>
      </linearGradient>
      <linearGradient id="a2_grey" x1="0" y1="0" x2="1" y2="1">
        <stop offset="0%" stop-color="#F4F6F8"/>
        <stop offset="100%" stop-color="#D7DEE7"/>
      </linearGradient>
      <filter id="a2_shadow" x="-30%" y="-30%" width="160%" height="170%">
        <feDropShadow dx="0" dy="8" stdDeviation="8" flood-color="#1F2937" flood-opacity="0.13"/>
      </filter>
      <filter id="a2_softshadow" x="-30%" y="-30%" width="160%" height="170%">
        <feDropShadow dx="0" dy="5" stdDeviation="6" flood-color="#FF6A00" flood-opacity="0.20"/>
      </filter>
    </defs>
    
  <rect width="256" height="256" fill="#FFFFFF"/>
  
    <g filter="url(#a2_shadow)">
      <rect x="66" y="48" width="102" height="136" rx="16" fill="#FFFFFF" stroke="#4A90E2" stroke-width="7"/>
      <path d="M138 48 v30 a8 8 0 0 0 8 8 h22" fill="none" stroke="#4A90E2" stroke-width="7" stroke-linecap="round"/>
      <rect x="82" y="94" width="70" height="48" rx="10" fill="#F4FAFF" stroke="#B4D8FF" stroke-width="4"/>
      <circle cx="102" cy="111" r="7" fill="#FF8A00"/>
      <path d="M88 135 l22 -21 l16 14 l10 -9 l16 16 Z" fill="url(#a2_blue)"/>
      <line x1="84" y1="160" x2="150" y2="160" stroke="#D8E9FA" stroke-width="6" stroke-linecap="round"/>
      <line x1="84" y1="174" x2="128" y2="174" stroke="#D8E9FA" stroke-width="6" stroke-linecap="round"/>
      <circle cx="165" cy="162" r="23" fill="#FFFFFF" stroke="#FF6A00" stroke-width="7"/>
      <line x1="182" y1="179" x2="204" y2="201" stroke="#FF6A00" stroke-width="8" stroke-linecap="round"/>
      <line x1="70" y1="205" x2="190" y2="205" stroke="#E8EEF4" stroke-width="8" stroke-linecap="round"/>
    </g>
    
</svg>