<svg xmlns="http://www.w3.org/2000/svg" width="512" height="512" viewBox="0 0 256 256">
  
    <defs>
      <linearGradient id="a10_orange" x1="0" y1="0" x2="1" y2="1">
        <stop offset="0%" stop-color="#FF9A1F"/>
        <stop offset="45%" stop-color="#FF6A00"/>
        <stop offset="100%" stop-color="#FF3D00"/>
      </linearGradient>
      <linearGradient id="a10_blue" x1="0" y1="0" x2="1" y2="1">
        <stop offset="0%" stop-color="#A9D8FF"/>
        <stop offset="100%" stop-color="#4A90E2"/>
      </linearGradient>
      <linearGradient id="a10_purple" x1="0" y1="0" x2="1" y2="1">
        <stop offset="0%" stop-color="#B7A7FF"/>
        <stop offset="100%" stop-color="#7C5CFF"/>
      </linearGradient>
      <linearGradient id="a10_grey" x1="0" y1="0" x2="1" y2="1">
        <stop offset="0%" stop-color="#F4F6F8"/>
        <stop offset="100%" stop-color="#D7DEE7"/>
      </linearGradient>
      <filter id="a10_shadow" x="-30%" y="-30%" width="160%" height="170%">
        <feDropShadow dx="0" dy="8" stdDeviation="8" flood-color="#1F2937" flood-opacity="0.13"/>
      </filter>
      <filter id="a10_softshadow" x="-30%" y="-30%" width="160%" height="170%">
        <feDropShadow dx="0" dy="5" stdDeviation="6" flood-color="#FF6A00" flood-opacity="0.20"/>
      </filter>
    </defs>
    
  <rect width="256" height="256" fill="#FFFFFF"/>
  
    <g filter="url(#a10_shadow)">
      <path d="M82 82 h92" stroke="#FF6A00" stroke-width="9" stroke-linecap="round"/>
      <path d="M107 67 h42" stroke="#FF6A00" stroke-width="9" stroke-linecap="round"/>
      <path d="M94 95 h68 l-7 91 a12 12 0 0 1 -12 11 h-30 a12 12 0 0 1 -12 -11 Z" fill="#FFFFFF" stroke="#FF6A00" stroke-width="8" stroke-linejoin="round"/>
      <line x1="116" y1="116" x2="116" y2="174" stroke="#D0D7DF" stroke-width="6" stroke-linecap="round"/>
      <line x1="140" y1="116" x2="140" y2="174" stroke="#D0D7DF" stroke-width="6" stroke-linecap="round"/>
      <rect x="91" y="91" width="74" height="14" rx="7" fill="#FFF0E4"/>
    </g>
    
</svg>