<svg xmlns="http://www.w3.org/2000/svg" width="512" height="512" viewBox="0 0 256 256">
  
    <defs>
      <linearGradient id="a4_orange" x1="0" y1="0" x2="1" y2="1">
        <stop offset="0%" stop-color="#FF9A1F"/>
        <stop offset="45%" stop-color="#FF6A00"/>
        <stop offset="100%" stop-color="#FF3D00"/>
      </linearGradient>
      <linearGradient id="a4_blue" x1="0" y1="0" x2="1" y2="1">
        <stop offset="0%" stop-color="#A9D8FF"/>
        <stop offset="100%" stop-color="#4A90E2"/>
      </linearGradient>
      <linearGradient id="a4_purple" x1="0" y1="0" x2="1" y2="1">
        <stop offset="0%" stop-color="#B7A7FF"/>
        <stop offset="100%" stop-color="#7C5CFF"/>
      </linearGradient>
      <linearGradient id="a4_grey" x1="0" y1="0" x2="1" y2="1">
        <stop offset="0%" stop-color="#F4F6F8"/>
        <stop offset="100%" stop-color="#D7DEE7"/>
      </linearGradient>
      <filter id="a4_shadow" x="-30%" y="-30%" width="160%" height="170%">
        <feDropShadow dx="0" dy="8" stdDeviation="8" flood-color="#1F2937" flood-opacity="0.13"/>
      </filter>
      <filter id="a4_softshadow" x="-30%" y="-30%" width="160%" height="170%">
        <feDropShadow dx="0" dy="5" stdDeviation="6" flood-color="#FF6A00" flood-opacity="0.20"/>
      </filter>
    </defs>
    
  <rect width="256" height="256" fill="#FFFFFF"/>
  
    <g>
      <ellipse cx="128" cy="159" rx="88" ry="22" fill="#FFF0E4"/>
      <path d="M61 150 C65 123 92 120 102 99 C117 68 161 70 174 101 C201 105 211 127 201 151 Z" fill="#FFE3CD" opacity="0.78"/>
      <g filter="url(#a4_shadow)">
        <rect x="80" y="62" width="94" height="72" rx="16" fill="#FFFFFF"/>
        <rect x="91" y="74" width="72" height="48" rx="11" fill="#F1F8FF"/>
        <circle cx="120" cy="89" r="8" fill="#FFB15C"/>
        <path d="M96 121 l26 -24 l17 17 l13 -12 l16 19 Z" fill="url(#a4_blue)"/>
        <circle cx="174" cy="135" r="31" fill="url(#a4_orange)" stroke="#FFFFFF" stroke-width="7"/>
        <line x1="174" y1="119" x2="174" y2="151" stroke="#FFFFFF" stroke-width="9" stroke-linecap="round"/>
        <line x1="158" y1="135" x2="190" y2="135" stroke="#FFFFFF" stroke-width="9" stroke-linecap="round"/>
      </g>
      <path d="M66 91.0 L67.95 95.05 L72.0 97 L67.95 98.95 L66 103.0 L64.05 98.95 L60.0 97 L64.05 95.05 Z" fill="#FFB15C"/>
      <path d="M196 61.8 L197.69 65.31 L201.2 67 L197.69 68.69 L196 72.2 L194.31 68.69 L190.8 67 L194.31 65.31 Z" fill="#FFD3A4"/>
      <path d="M48 150.0 L49.3 152.7 L52.0 154 L49.3 155.3 L48 158.0 L46.7 155.3 L44.0 154 L46.7 152.7 Z" fill="#FFB15C"/>
    </g>
    
</svg>