<svg xmlns="http://www.w3.org/2000/svg" width="512" height="512" viewBox="0 0 256 256">
  
    <defs>
      <linearGradient id="a5_orange" x1="0" y1="0" x2="1" y2="1">
        <stop offset="0%" stop-color="#FF9A1F"/>
        <stop offset="45%" stop-color="#FF6A00"/>
        <stop offset="100%" stop-color="#FF3D00"/>
      </linearGradient>
      <linearGradient id="a5_blue" x1="0" y1="0" x2="1" y2="1">
        <stop offset="0%" stop-color="#A9D8FF"/>
        <stop offset="100%" stop-color="#4A90E2"/>
      </linearGradient>
      <linearGradient id="a5_purple" x1="0" y1="0" x2="1" y2="1">
        <stop offset="0%" stop-color="#B7A7FF"/>
        <stop offset="100%" stop-color="#7C5CFF"/>
      </linearGradient>
      <linearGradient id="a5_grey" x1="0" y1="0" x2="1" y2="1">
        <stop offset="0%" stop-color="#F4F6F8"/>
        <stop offset="100%" stop-color="#D7DEE7"/>
      </linearGradient>
      <filter id="a5_shadow" x="-30%" y="-30%" width="160%" height="170%">
        <feDropShadow dx="0" dy="8" stdDeviation="8" flood-color="#1F2937" flood-opacity="0.13"/>
      </filter>
      <filter id="a5_softshadow" x="-30%" y="-30%" width="160%" height="170%">
        <feDropShadow dx="0" dy="5" stdDeviation="6" flood-color="#FF6A00" flood-opacity="0.20"/>
      </filter>
    </defs>
    
  <rect width="256" height="256" fill="#FFFFFF"/>
  
    <g>
      <ellipse cx="128" cy="176" rx="84" ry="18" fill="#F0F2F5"/>
      <path d="M68 151 C53 139 49 122 59 112 C76 126 78 139 68 151 Z" fill="#E1E7EF"/>
      <path d="M185 151 C199 138 204 122 194 112 C177 126 176 139 185 151 Z" fill="#E1E7EF"/>
      <g filter="url(#a5_shadow)">
        <path d="M71 129 h114 l-18 50 H89 Z" fill="#C9D0D8"/>
        <path d="M83 121 h90 l18 39 H65 Z" fill="#E8ECF1"/>
        <path d="M92 152 h72 a9 9 0 0 1 9 9 v18 H83 v-18 a9 9 0 0 1 9-9 Z" fill="#AEB7C2"/>
        <rect x="110" y="69" width="58" height="72" rx="10" fill="#FFFFFF" stroke="#D7DDE5" stroke-width="4"/>
        <path d="M150 69 v18 a6 6 0 0 0 6 6 h12" fill="none" stroke="#D7DDE5" stroke-width="4"/>
        <circle cx="131" cy="103" r="6" fill="#C8D0DA"/>
        <path d="M117 128 l18 -18 l12 12 l7 -7 l13 13 Z" fill="#BEC7D3"/>
      </g>
    </g>
    
</svg>