<svg xmlns="http://www.w3.org/2000/svg" width="512" height="512" viewBox="0 0 256 256">
  
    <defs>
      <linearGradient id="a7_orange" x1="0" y1="0" x2="1" y2="1">
        <stop offset="0%" stop-color="#FF9A1F"/>
        <stop offset="45%" stop-color="#FF6A00"/>
        <stop offset="100%" stop-color="#FF3D00"/>
      </linearGradient>
      <linearGradient id="a7_blue" x1="0" y1="0" x2="1" y2="1">
        <stop offset="0%" stop-color="#A9D8FF"/>
        <stop offset="100%" stop-color="#4A90E2"/>
      </linearGradient>
      <linearGradient id="a7_purple" x1="0" y1="0" x2="1" y2="1">
        <stop offset="0%" stop-color="#B7A7FF"/>
        <stop offset="100%" stop-color="#7C5CFF"/>
      </linearGradient>
      <linearGradient id="a7_grey" x1="0" y1="0" x2="1" y2="1">
        <stop offset="0%" stop-color="#F4F6F8"/>
        <stop offset="100%" stop-color="#D7DEE7"/>
      </linearGradient>
      <filter id="a7_shadow" x="-30%" y="-30%" width="160%" height="170%">
        <feDropShadow dx="0" dy="8" stdDeviation="8" flood-color="#1F2937" flood-opacity="0.13"/>
      </filter>
      <filter id="a7_softshadow" x="-30%" y="-30%" width="160%" height="170%">
        <feDropShadow dx="0" dy="5" stdDeviation="6" flood-color="#FF6A00" flood-opacity="0.20"/>
      </filter>
    </defs>
    
  <rect width="256" height="256" fill="#FFFFFF"/>
  
    <g>
      <ellipse cx="128" cy="178" rx="86" ry="19" fill="#FFF2E8"/>
      <g filter="url(#a7_shadow)">
        <path d="M64 138 l34 -30 h60 l34 30 v41 H64 Z" fill="#FFB15C" opacity="0.92"/>
        <path d="M64 138 h49 l15 22 l15 -22 h49 l-22 47 H86 Z" fill="#FF7A00" opacity="0.88"/>
        <rect x="79" y="82" width="56" height="48" rx="10" fill="#FFFFFF" transform="rotate(-9 107 106)"/>
        <rect x="116" y="70" width="62" height="52" rx="11" fill="#F2F8FF" transform="rotate(8 147 96)"/>
        <path d="M93 113 l15 -14 l10 10 l7 -6 l9 10 Z" fill="url(#a7_blue)" opacity="0.9" transform="rotate(-9 107 106)"/>
        <path d="M132 107 l17 -17 l12 12 l8 -7 l10 12 Z" fill="url(#a7_blue)" opacity="0.9" transform="rotate(8 147 96)"/>
        <circle cx="132" cy="91" r="5" fill="#FFB15C"/>
      </g>
      <path d="M55 89.8 L56.69 93.31 L60.2 95 L56.69 96.69 L55 100.2 L53.31 96.69 L49.8 95 L53.31 93.31 Z" fill="#FFC15D"/>
      <path d="M199 112.6 L200.43 115.57 L203.4 117 L200.43 118.43 L199 121.4 L197.57 118.43 L194.6 117 L197.57 115.57 Z" fill="#FFC15D"/>
      <path d="M193 65.4 L194.17 67.83 L196.6 69 L194.17 70.17 L193 72.6 L191.83 70.17 L189.4 69 L191.83 67.83 Z" fill="#FFC15D"/>
    </g>
    
</svg>