<svg xmlns="http://www.w3.org/2000/svg" width="512" height="512" viewBox="0 0 256 256">
  
    <defs>
      <linearGradient id="a6_orange" x1="0" y1="0" x2="1" y2="1">
        <stop offset="0%" stop-color="#FF9A1F"/>
        <stop offset="45%" stop-color="#FF6A00"/>
        <stop offset="100%" stop-color="#FF3D00"/>
      </linearGradient>
      <linearGradient id="a6_blue" x1="0" y1="0" x2="1" y2="1">
        <stop offset="0%" stop-color="#A9D8FF"/>
        <stop offset="100%" stop-color="#4A90E2"/>
      </linearGradient>
      <linearGradient id="a6_purple" x1="0" y1="0" x2="1" y2="1">
        <stop offset="0%" stop-color="#B7A7FF"/>
        <stop offset="100%" stop-color="#7C5CFF"/>
      </linearGradient>
      <linearGradient id="a6_grey" x1="0" y1="0" x2="1" y2="1">
        <stop offset="0%" stop-color="#F4F6F8"/>
        <stop offset="100%" stop-color="#D7DEE7"/>
      </linearGradient>
      <filter id="a6_shadow" x="-30%" y="-30%" width="160%" height="170%">
        <feDropShadow dx="0" dy="8" stdDeviation="8" flood-color="#1F2937" flood-opacity="0.13"/>
      </filter>
      <filter id="a6_softshadow" x="-30%" y="-30%" width="160%" height="170%">
        <feDropShadow dx="0" dy="5" stdDeviation="6" flood-color="#FF6A00" flood-opacity="0.20"/>
      </filter>
    </defs>
    
  <rect width="256" height="256" fill="#FFFFFF"/>
  
    <g>
      <ellipse cx="128" cy="173" rx="80" ry="18" fill="#F2F4F7"/>
      <g filter="url(#a6_shadow)">
        <rect x="71" y="75" width="82" height="58" rx="14" fill="#FFFFFF" stroke="#D8DEE6" stroke-width="5"/>
        <path d="M98 133 l-10 20 l27 -20" fill="#FFFFFF" stroke="#D8DEE6" stroke-width="5" stroke-linejoin="round"/>
        <rect x="104" y="110" width="82" height="58" rx="14" fill="#F9FBFD" stroke="#C8D0DA" stroke-width="5"/>
        <path d="M159 168 l15 20 l-32 -20" fill="#F9FBFD" stroke="#C8D0DA" stroke-width="5" stroke-linejoin="round"/>
        <line x1="89" y1="96" x2="135" y2="96" stroke="#B9C3CF" stroke-width="5" stroke-linecap="round"/>
        <line x1="89" y1="113" x2="121" y2="113" stroke="#D4DCE5" stroke-width="5" stroke-linecap="round"/>
        <line x1="123" y1="131" x2="168" y2="131" stroke="#B9C3CF" stroke-width="5" stroke-linecap="round"/>
        <line x1="123" y1="148" x2="154" y2="148" stroke="#D4DCE5" stroke-width="5" stroke-linecap="round"/>
      </g>
      <rect x="53" y="62" width="28" height="36" rx="7" fill="url(#a6_blue)"/>
      <line x1="62" y1="73" x2="72" y2="73" stroke="#FFFFFF" stroke-width="3" stroke-linecap="round"/>
      <line x1="62" y1="83" x2="72" y2="83" stroke="#FFFFFF" stroke-width="3" stroke-linecap="round"/>
    </g>
    
</svg>